<?xml version="1.0" encoding="utf-8"?>
<!-- Generator: Adobe Illustrator 16.0.0, SVG Export Plug-In . SVG Version: 6.00 Build 0)  -->
<!DOCTYPE svg PUBLIC "-//W3C//DTD SVG 1.1//EN" "http://www.w3.org/Graphics/SVG/1.1/DTD/svg11.dtd">
<svg version="1.1" id="Layer_2" xmlns="http://www.w3.org/2000/svg" xmlns:xlink="http://www.w3.org/1999/xlink" x="0px" y="0px"
	 width="527.532px" height="485.839px" viewBox="0 0 527.532 485.839" enable-background="new 0 0 527.532 485.839"
	 xml:space="preserve">
<path fill="#FFFFFF" d="M526.12,387.345c-0.467-0.29-46.773-29.368-61.164-55.646c-3.914-7.148-6.311-13.732-8.627-20.1
	c-6.414-17.624-11.953-32.846-45.357-48.073c-41.037-18.708-50.105-22.835-51.184-23.325c-1.537-0.856-14.668-7.903-24.328-4.421
	c-2.969,1.072-5.303,2.971-6.963,5.661l-11.584-5.791c-0.133-0.067-0.271-0.124-0.412-0.169c-0.578-0.188-14.233-4.522-22.51,2.387
	c-4.881,4.076-6.703,10.922-5.418,20.35c0.031,0.23,0.09,0.453,0.172,0.669l6.114,15.967l-34.165-36.96
	c2.454-5.461,3.832-11.507,3.832-17.872c0-21.469-15.545-39.363-35.968-43.051V96.826h12.987l-20.13-70.129l-20.129,70.129h12.987
	v79.921c-21.061,3.147-37.267,21.352-37.267,43.275s16.206,40.128,37.267,43.274v86.777h-12.987l20.13,70.129l20.129-70.129h-12.987
	V265.31l39.03,57.109c0.203,0.338,0.42,0.705,0.646,1.086c-2.302,0.363-5.117,1.244-7.873,3.244
	c-5.416,3.928-8.815,10.748-10.102,20.271c-2.966,21.954-5.966,35.877-6.394,37.816c-1.575,4.045-1.914,13.068,7.567,20.18
	c5.966,4.475,35.202,18.525,62.565,30.072c21.412,9.033,60.023,24.303,78.068,25.07c24.535,1.045,28.055,4.852,31.457,8.533
	c0.729,0.789,1.48,1.604,2.408,2.416c5.023,4.395,14.625,14.625,14.723,14.729l4.377-4.104c-0.4-0.43-9.902-10.553-15.146-15.143
	c-0.688-0.602-1.303-1.266-1.953-1.971c-5.037-5.449-10.539-9.391-35.609-10.457c-30.645-1.305-127.811-46.84-137.289-53.949
	c-8.124-6.092-5.813-12.607-5.536-13.301l0.168-0.517c0.033-0.146,3.313-14.692,6.541-38.575c1.05-7.773,3.604-13.207,7.588-16.152
	c3.133-2.313,6.346-2.461,7.747-2.394c6.235,11.175,15.057,28.548,15.057,35.677c0,1.657,1.343,3,3,3c1.656,0,3-1.343,3-3
	c0-12.168-17.87-42.303-19.908-45.699c-0.029-0.049-0.062-0.1-0.096-0.147l-61.537-90.039c-0.665-1.539-4.902-12.142,1.441-18.486
	c6.01-6.011,16.037,1.695,17.245,2.665l71.288,77.121c0.976,1.057,2.565,1.272,3.786,0.512c1.223-0.758,1.732-2.276,1.219-3.621
	l-11.562-30.189c-0.907-7.055,0.221-11.962,3.353-14.587c5.303-4.445,15.148-1.788,16.629-1.354l14.061,7.031
	c0.762,0.379,1.646,0.418,2.438,0.108c0.793-0.312,1.414-0.942,1.713-1.739c0.979-2.613,2.557-4.282,4.822-5.103
	c6.172-2.236,16.137,2.172,19.451,4.057c0.08,0.046,0.162,0.088,0.246,0.126c0.004,0.001,7.154,3.251,51.297,23.375
	c31.113,14.186,36.01,27.637,42.207,44.666c2.395,6.578,4.869,13.38,9.004,20.93c15.137,27.644,61.293,56.637,63.25,57.856
	c0.494,0.308,1.043,0.454,1.586,0.454c1,0,1.979-0.501,2.549-1.412C527.954,390.074,527.526,388.222,526.12,387.345z M255.44,232.21
	l-21.432-23.186c-0.082-0.088-0.168-0.171-0.26-0.249c-5.22-4.439-17.268-10.658-25.493-2.433
	c-9.826,9.827-2.837,24.854-2.535,25.489c0.066,0.14,0.144,0.275,0.232,0.403l18.395,26.914l-1.652-2.417
	c-0.638,0.033-1.281,0.052-1.928,0.052c-20.27,0-36.76-16.491-36.76-36.76c0-20.27,16.49-36.76,36.76-36.76s36.76,16.49,36.76,36.76
	C257.526,224.293,256.786,228.393,255.44,232.21z"/>
</svg>
