<?xml version="1.0" encoding="utf-8"?>
<!-- Generator: Adobe Illustrator 15.0.0, SVG Export Plug-In . SVG Version: 6.00 Build 0)  -->
<!DOCTYPE svg PUBLIC "-//W3C//DTD SVG 1.1//EN" "http://www.w3.org/Graphics/SVG/1.1/DTD/svg11.dtd">
<svg version="1.1" id="Layer_2" xmlns="http://www.w3.org/2000/svg" xmlns:xlink="http://www.w3.org/1999/xlink" x="0px" y="0px"
	 width="527.532px" height="485.839px" viewBox="0 0 527.532 485.839" enable-background="new 0 0 527.532 485.839"
	 xml:space="preserve">
<path fill="#FFFFFF" d="M263.786,0.42c-133.808,0-242.52,108.712-242.52,242.52c0,133.651,108.712,242.48,242.52,242.48
	c133.65,0,242.48-108.711,242.48-242.48C506.148,109.132,397.436,0.42,263.786,0.42z M423.558,414.453l-14.916-16.633l-5.938,5.287
	l14.916,16.613c-4.222,3.709-8.444,7.143-12.923,10.417l-13.062-18.073l-6.471,4.617l13.18,18.093
	c-4.479,3.156-8.958,6.057-13.713,8.978l-21.763-37.744l-6.865,3.966l21.762,37.861c-4.873,2.763-9.884,5.269-15.034,7.636
	l-9.095-20.44l-7.262,3.157l9.096,20.46c-5.149,2.11-10.278,4.223-15.567,5.938l-6.983-21.367l-7.537,2.506l7.004,21.367
	c-5.268,1.599-10.693,3.038-16.1,4.36l-4.617-21.9l-7.793,1.579l4.616,21.899c-5.405,1.065-10.929,1.973-16.493,2.644l-2.368-22.294
	l-7.911,0.789l2.367,22.295c-5.406,0.513-10.812,0.789-16.237,0.789v-43.801h-7.892v43.801c-5.682-0.118-11.365-0.395-16.889-0.928
	l2.368-22.294l-7.932-0.79l-2.368,22.295c-5.524-0.651-11.088-1.578-16.494-2.624l4.617-21.9l-7.773-1.599l-4.617,21.901
	c-5.406-1.185-10.812-2.624-16.1-4.36l6.984-21.367l-7.517-2.506l-7.004,21.387c-5.268-1.854-10.417-3.827-15.547-5.959l9.095-20.44
	l-7.261-3.155l-9.095,20.439c-5.011-2.368-9.766-4.755-14.521-7.379l22.038-38l-6.866-3.966l-22.038,38
	c-4.874-2.9-9.628-5.939-14.107-9.233l13.062-18.093l-6.472-4.617l-13.062,18.073c-4.478-3.274-8.7-6.846-12.923-10.417
	l14.916-16.613l-5.958-5.287l-14.896,16.494c-4.084-3.828-7.912-7.655-11.74-11.739l16.495-14.896l-5.288-5.958l-16.613,14.916
	c-3.709-4.223-7.142-8.444-10.437-12.923l18.092-13.082l-4.617-6.451l-18.093,13.062c-3.176-4.479-6.195-9.096-8.977-13.851
	l38.138-22.038l-3.966-6.866l-38.118,22.038c-2.762-4.873-5.288-9.885-7.655-14.896l20.44-9.115l-3.157-7.262l-20.44,9.115
	c-2.131-5.148-4.222-10.298-5.959-15.586l21.249-6.847l-2.505-7.517l-21.367,6.865c-1.599-5.287-3.039-10.693-4.361-16.099
	l21.9-4.617l-1.579-7.794l-21.9,4.618c-1.065-5.406-1.973-10.951-2.644-16.495l22.295-2.387l-0.79-7.893l-22.295,2.367
	c-0.533-5.544-0.789-11.088-0.927-16.632h44.215v-7.911h-43.82c0.138-5.544,0.415-11.089,0.928-16.613l22.294,2.367l0.789-7.931
	l-22.295-2.368c0.671-5.544,1.579-11.088,2.644-16.494l21.9,4.617l1.579-7.773l-21.901-4.617c1.184-5.406,2.644-10.812,4.36-16.1
	l21.368,6.866l2.526-7.537l-21.526-6.195c1.854-5.288,3.828-10.417,5.939-15.567l20.44,9.096l3.176-7.261l-20.459-9.095
	c2.387-5.15,4.893-10.023,7.655-14.896l38.139,22.018l3.965-6.866l-38.138-22.019c2.9-4.755,5.82-9.371,8.977-13.85l18.073,13.061
	l4.616-6.471l-18.072-13.062c3.295-4.499,6.866-8.721,10.417-12.943l16.632,14.916l5.268-5.938L91.978,82.891
	c3.828-4.104,7.655-7.932,11.759-11.759l14.916,16.494l5.918-5.268l-14.916-16.632c4.222-3.69,8.444-7.123,12.943-10.417
	l13.062,18.072l6.471-4.616L129.07,50.692c4.617-3.315,9.352-6.333,14.107-9.234l22.038,38l6.866-3.965l-22.039-38
	c4.755-2.625,9.628-5.15,14.502-7.399l9.115,20.459l7.261-3.176l-9.115-20.44c5.149-2.111,10.299-4.222,15.587-5.939l6.984,21.368
	l7.517-2.486l-7.004-21.387c5.288-1.579,10.694-3.039,16.1-4.34l4.617,21.9l7.793-1.579l-4.617-21.92
	c5.406-1.046,10.95-1.973,16.494-2.624l2.368,22.294l7.912-0.79l-2.368-22.294c6.728-0.552,13.732-0.947,20.598-0.947
	c0.65,0,1.184,0,1.834,0v234.865l201.068-62.15l0,0l2.782-0.907l18.724-5.82c1.599,5.15,3.038,10.437,4.222,15.843l-22.019,4.617
	l1.579,7.773l21.899-4.617c1.065,5.406,1.973,10.97,2.644,16.494l-22.294,2.368l0.789,7.932l22.295-2.368
	c0.513,5.524,0.789,11.068,0.928,16.613h-43.545v7.931h43.545c-0.139,5.524-0.415,11.068-0.928,16.613l-22.295-2.368l-0.789,7.912
	l22.294,2.367c-0.671,5.544-1.578,11.088-2.644,16.494l-21.899-4.616l-1.579,7.793l22.019,4.617
	c-1.184,5.406-2.623,10.812-4.341,16.099l-21.387-7.003l-2.485,7.517l21.367,6.984c-1.854,5.288-3.828,10.438-5.939,15.587
	l-20.439-9.115l-3.177,7.261l20.459,9.114c-2.387,5.013-4.893,9.886-7.536,14.64l-37.724-21.781l-3.965,6.865l37.742,21.782
	c-2.92,4.735-5.958,9.49-9.115,14.107l-18.072-13.2l-4.616,6.472l18.072,13.2c-3.295,4.479-6.866,8.7-10.417,12.923l-16.633-14.916
	l-5.268,5.958l16.612,14.896C431.47,406.659,427.504,410.625,423.558,414.453z"/>
</svg>
